<svg width="146" height="27" viewBox="0 0 146 27" fill="none" xmlns="http://www.w3.org/2000/svg">
<path d="M15.623 17.2891H9.25977C8.39258 17.2891 7.85352 17.3594 7.64258 17.5C7.43164 17.6406 7.15039 18.1094 6.79883 18.9062L5.65625 21.4902C5.14062 22.6738 4.88281 23.5527 4.88281 24.127C4.88281 24.6777 5.01758 25.0762 5.28711 25.3223C5.56836 25.5684 6.11328 25.7793 6.92188 25.9551C7.27344 26.0254 7.45508 26.166 7.4668 26.377C7.47852 26.5762 7.31445 26.6758 6.97461 26.6758C6.8457 26.6758 6.64648 26.6699 6.37695 26.6582L4.68945 26.5703C4.12695 26.5469 3.47656 26.5352 2.73828 26.5352C2.39844 26.5352 2.13477 26.541 1.94727 26.5527C1.34961 26.5996 1.02148 26.623 0.962891 26.623C0.646484 26.623 0.488281 26.5176 0.488281 26.3066C0.488281 26.1191 0.587891 25.9961 0.787109 25.9375L1.4375 25.7441C1.67188 25.6738 1.98828 25.3926 2.38672 24.9004C2.78516 24.3965 3.11328 23.875 3.37109 23.3359L3.88086 22.1758L12.916 2.11914C13.0684 1.76758 13.2383 1.5918 13.4258 1.5918C13.6133 1.5918 13.7715 1.76172 13.9004 2.10156L21.459 21.4375L21.8457 22.3867C22.3965 23.8047 22.8535 24.6895 23.2168 25.041C23.5801 25.3809 24.3184 25.6504 25.4316 25.8496C25.7949 25.9199 25.9707 26.0664 25.959 26.2891C25.9473 26.4883 25.7832 26.5879 25.4668 26.5879C25.3613 26.5879 25.1387 26.5762 24.7988 26.5527C24.1895 26.4941 23.1055 26.4648 21.5469 26.4648C19.918 26.4648 18.8984 26.5 18.4883 26.5703C18.2422 26.6172 18.0605 26.6406 17.9434 26.6406C17.6387 26.6406 17.4863 26.5176 17.4863 26.2715C17.4863 26.084 17.6328 25.9609 17.9258 25.9023L18.4707 25.7793C19.0566 25.6621 19.3496 25.2637 19.3496 24.584C19.3496 23.9629 18.9922 22.7266 18.2773 20.875L17.3984 18.5547C17.1523 17.9102 16.959 17.541 16.8184 17.4473C16.6777 17.3418 16.2793 17.2891 15.623 17.2891ZM15.834 14.4766L13.0742 7.51562L12.9336 7.14648C12.793 6.77148 12.6406 6.57813 12.4766 6.56641C12.3945 6.55469 12.3008 6.66602 12.1953 6.90039L8.76758 14.5117C8.61523 14.8398 8.53906 15.0566 8.53906 15.1621C8.53906 15.4668 8.80859 15.6191 9.34766 15.6191L9.82227 15.6367H15.1309C15.7168 15.6367 16.0098 15.4902 16.0098 15.1973C16.0098 15.1152 15.9805 14.9805 15.9219 14.793L15.834 14.4766ZM30.9863 13.9844C32.0645 13.1289 32.9844 12.543 33.7461 12.2266C34.5195 11.8984 35.3633 11.7344 36.2773 11.7344C38.0938 11.7344 39.5762 12.3906 40.7246 13.7031C41.8848 15.0039 42.4648 16.6797 42.4648 18.7305C42.4648 21.0391 41.7676 22.9902 40.373 24.584C38.9902 26.1777 37.291 26.9746 35.2754 26.9746C33.5762 26.9746 31.9883 26.4004 30.5117 25.252C30.3242 25.0996 30.1836 25.0293 30.0898 25.041C29.9258 25.0527 29.6855 25.375 29.3691 26.0078C29.041 26.6406 28.7949 26.957 28.6309 26.957C28.4199 26.957 28.3145 26.8047 28.3145 26.5C28.3145 26.3828 28.3555 26.1426 28.4375 25.7793C28.5312 25.3691 28.5781 24.7129 28.5781 23.8105V6.28516C28.5781 4.94922 28.4785 4.08789 28.2793 3.70117C28.1738 3.51367 28.0039 3.33203 27.7695 3.15625C27.5469 2.98047 27.3711 2.89844 27.2422 2.91016L26.1348 2.99805L25.9941 2.96289C25.8887 2.91602 25.8359 2.83398 25.8359 2.7168C25.8477 2.50586 26.041 2.35938 26.416 2.27734C27.8105 1.96094 29.1113 1.44531 30.3184 0.730469C30.4707 0.648437 30.5938 0.607422 30.6875 0.607422C30.8867 0.607422 30.9863 0.783203 30.9863 1.13477V13.9844ZM30.9863 16.0586V21.5605L30.9688 22.2285L31.2148 23.4238C31.5547 24.1738 32.1582 24.8125 33.0254 25.3398C33.9043 25.8555 34.8066 26.1133 35.7324 26.1133C37.2324 26.1133 38.4277 25.5742 39.3184 24.4961C40.209 23.4062 40.6543 21.9531 40.6543 20.1367C40.6543 18.2734 40.0625 16.6152 38.8789 15.1621C37.6953 13.709 36.3418 12.9824 34.8184 12.9824C33.5996 12.9824 32.5215 13.4395 31.584 14.3535C31.1855 14.7402 30.9863 15.3086 30.9863 16.0586ZM52.9414 11.7344C55.0508 11.7344 56.8613 12.4785 58.373 13.9668C59.8848 15.4434 60.6406 17.207 60.6406 19.2578C60.6406 21.4844 59.8965 23.3242 58.4082 24.7773C56.9199 26.2305 55.0391 26.957 52.7656 26.957C50.5391 26.957 48.7051 26.2539 47.2637 24.8477C45.834 23.4297 45.1191 21.6191 45.1191 19.416C45.1191 17.2832 45.8809 15.4727 47.4043 13.9844C48.9277 12.4844 50.7734 11.7344 52.9414 11.7344ZM52.4844 12.4375C51.0195 12.4375 49.8359 12.9824 48.9336 14.0723C48.043 15.1504 47.5977 16.5684 47.5977 18.3262C47.5977 20.5645 48.1543 22.4395 49.2676 23.9512C50.3926 25.4512 51.7871 26.2012 53.4512 26.2012C54.9043 26.2012 56.0469 25.668 56.8789 24.6016C57.7227 23.5352 58.1445 22.0879 58.1445 20.2598C58.1445 17.9512 57.6172 16.0703 56.5625 14.6172C55.5078 13.1641 54.1484 12.4375 52.4844 12.4375ZM75.1602 24.3203C73.8008 26.0781 72.1484 26.957 70.2031 26.957C68.5625 26.957 67.2793 26.4531 66.3535 25.4453C65.4395 24.4258 64.9824 23.0078 64.9824 21.1914L65 20.0312V14.2129C65 13.6152 64.877 13.1992 64.6309 12.9648C64.3848 12.7305 63.9277 12.5957 63.2598 12.5605C62.9668 12.5371 62.8262 12.4141 62.8379 12.1914C62.8496 11.9805 63.2129 11.8574 63.9277 11.8223L65.2637 11.7695C65.5566 11.7461 65.9961 11.6641 66.582 11.5234C66.7461 11.4766 66.875 11.4531 66.9688 11.4531C67.2852 11.4531 67.4434 11.7285 67.4434 12.2793V12.543L67.373 20.4004V20.9629L67.6543 23.0898C67.9004 23.8398 68.3574 24.4609 69.0254 24.9531C69.6934 25.4453 70.4199 25.6914 71.2051 25.6914C72.2363 25.6914 73.1504 25.3926 73.9473 24.7949C74.7559 24.1855 75.1602 23.4941 75.1602 22.7207V14.3184C75.1602 13.6504 75.043 13.1934 74.8086 12.9473C74.5859 12.7012 74.1641 12.5781 73.543 12.5781C73.168 12.5781 72.9805 12.4668 72.9805 12.2441C72.9805 11.9746 73.1914 11.834 73.6133 11.8223L74.1934 11.7871L75.4238 11.7344C75.8223 11.7109 76.2793 11.6172 76.7949 11.4531C76.959 11.4062 77.0996 11.377 77.2168 11.3652C77.4629 11.3535 77.5859 11.5645 77.5859 11.998V23.4238C77.5859 24.3262 77.6797 24.9238 77.8672 25.2168C78.0664 25.498 78.4648 25.6387 79.0625 25.6387H79.3438L79.5898 25.6211C79.8477 25.6211 79.9824 25.709 79.9941 25.8848C80.0059 26.1309 79.666 26.2715 78.9746 26.3066L77.8672 26.377C77.1055 26.4121 76.6133 26.459 76.3906 26.5176C76.1094 26.5879 75.8926 26.623 75.7402 26.623C75.3652 26.623 75.1777 26.0781 75.1777 24.9883L75.1602 24.3203ZM86.3574 13.8613V22.7031C86.3574 23.8516 86.5215 24.5957 86.8496 24.9355C87.3301 25.4395 88.0156 25.6914 88.9062 25.6914C89.6211 25.6914 90.2246 25.5625 90.7168 25.3047L91.6309 24.8652L91.7363 24.8301C91.877 24.8301 91.9473 24.8945 91.9473 25.0234C91.9473 25.4102 91.4844 25.832 90.5586 26.2891C89.6328 26.7344 88.7715 26.957 87.9746 26.957C85.2793 26.957 83.9316 25.5508 83.9316 22.7383V13.8613H82.3672C82.0625 13.8613 81.9102 13.7734 81.9102 13.5977C81.9102 13.4336 82.0625 13.2227 82.3672 12.9648C83.7383 11.8047 84.7871 10.6445 85.5137 9.48438C85.8301 8.96875 86.0527 8.71094 86.1816 8.71094C86.3457 8.71094 86.4277 8.86328 86.4277 9.16797L86.3574 12.209H90.1016C90.6172 12.209 91.0156 12.1152 91.2969 11.9277C91.4727 11.7988 91.6016 11.7285 91.6836 11.7168C91.8125 11.6934 91.8711 11.7578 91.8594 11.9102C91.8594 11.9688 91.8066 12.1152 91.7012 12.3496L91.2969 13.3516C91.168 13.6914 90.9102 13.8613 90.5234 13.8613H86.3574ZM124.08 8.76367C123.084 10.5098 122.422 11.7227 122.094 12.4023L120.529 15.7598L118.736 19.4512C118.643 19.6621 118.15 20.7637 117.26 22.7559C116.896 23.5762 116.58 24.25 116.311 24.7773C116.158 25.0938 116.053 25.3164 115.994 25.4453C115.76 25.9961 115.508 26.2715 115.238 26.2715C114.957 26.2715 114.688 25.9844 114.43 25.4102C114.383 25.3047 114.219 24.9824 113.938 24.4434L113.586 23.7051L106.994 9.43164L106.59 18.1328C106.555 18.8477 106.537 20.2773 106.537 22.4219C106.537 24.4844 107.264 25.627 108.717 25.8496C109.432 25.9668 109.789 26.1426 109.789 26.377C109.789 26.6465 109.619 26.7812 109.279 26.7812C109.057 26.7812 108.84 26.7695 108.629 26.7461C107.316 26.6289 106.303 26.5703 105.588 26.5703C104.732 26.5703 103.912 26.623 103.127 26.7285C102.893 26.7637 102.711 26.7812 102.582 26.7812C102.23 26.7812 102.055 26.6523 102.055 26.3945C102.055 26.1953 102.195 26.0664 102.477 26.0078C103.332 25.8086 103.93 25.4102 104.27 24.8125C104.609 24.2148 104.814 23.1953 104.885 21.7539L105.131 16.6562C105.307 12.9648 105.395 10.6328 105.395 9.66016C105.395 7.57422 105.119 6.0332 104.568 5.03711C104.018 4.0293 103.098 3.4082 101.809 3.17383C101.457 3.11523 101.281 2.96875 101.281 2.73438C101.281 2.47656 101.428 2.34766 101.721 2.34766C101.826 2.34766 102.02 2.35938 102.301 2.38281C102.465 2.40625 102.863 2.41797 103.496 2.41797C104.457 2.41797 105.066 2.40625 105.324 2.38281C105.594 2.34766 105.811 2.33008 105.975 2.33008C106.479 2.33008 106.9 2.69922 107.24 3.4375L107.434 3.8418L114.764 19.6445L115.66 21.4551C115.789 21.7598 115.883 21.9121 115.941 21.9121C116.012 21.9121 116.1 21.8008 116.205 21.5781L116.416 21.1035L116.574 20.752L124.836 3.06836C125.012 2.69336 125.141 2.46484 125.223 2.38281C125.316 2.28906 125.475 2.24219 125.697 2.24219C125.791 2.24219 126.049 2.26562 126.471 2.3125C126.623 2.32422 126.816 2.33008 127.051 2.33008C127.789 2.33008 128.381 2.30664 128.826 2.25977C129.037 2.24805 129.207 2.23633 129.336 2.22461C129.57 2.21289 129.688 2.33008 129.688 2.57617C129.688 2.79883 129.57 2.93945 129.336 2.99805L128.58 3.19141C127.982 3.33203 127.561 3.70117 127.314 4.29883C127.08 4.88477 126.963 5.85156 126.963 7.19922L127.068 11.4355L127.402 20.9805L127.49 23.1953C127.49 24.0859 127.654 24.7246 127.982 25.1113C128.311 25.498 128.908 25.7559 129.775 25.8848C130.396 25.9785 130.707 26.1367 130.707 26.3594C130.707 26.5938 130.49 26.7109 130.057 26.7109C129.928 26.7109 129.781 26.7051 129.617 26.6934L128.246 26.5527C127.789 26.5059 127.297 26.4824 126.77 26.4824C126.406 26.4824 125.832 26.5059 125.047 26.5527C123.828 26.6113 123.125 26.6406 122.938 26.6406C122.598 26.6406 122.428 26.5352 122.428 26.3242C122.428 26.1367 122.574 26.002 122.867 25.9199C123.559 25.7324 124.021 25.4277 124.256 25.0059C124.49 24.584 124.607 23.8457 124.607 22.791L124.537 19.9258L124.08 8.76367ZM135.418 17.7461L135.4 18.1328C135.4 20.1367 135.951 21.8242 137.053 23.1953C138.166 24.5547 139.531 25.2344 141.148 25.2344C142.426 25.2344 143.814 24.6602 145.314 23.5117C145.408 23.4414 145.496 23.4004 145.578 23.3887C145.742 23.377 145.824 23.4707 145.824 23.6699C145.824 24.0215 145.414 24.5195 144.594 25.1641C143.07 26.3594 141.459 26.957 139.76 26.957C137.85 26.957 136.244 26.2305 134.943 24.7773C133.654 23.3242 133.01 21.5254 133.01 19.3809C133.01 17.3418 133.678 15.5605 135.014 14.0371C136.35 12.502 137.914 11.7344 139.707 11.7344C141.664 11.7344 143.229 12.5488 144.4 14.1777C144.682 14.5762 144.969 15.1152 145.262 15.7949C145.555 16.4746 145.701 16.9492 145.701 17.2188C145.701 17.6055 145.32 17.7988 144.559 17.7988L143.258 17.7812L142.062 17.7461H135.418ZM135.488 16.7969H141.447C142.373 16.7969 142.836 16.6094 142.836 16.2344C142.836 15.3203 142.438 14.4707 141.641 13.6855C140.855 12.9004 140 12.5078 139.074 12.5078C138.113 12.5078 137.311 12.8945 136.666 13.668C136.033 14.4297 135.641 15.4727 135.488 16.7969Z" fill="black"/>
</svg>
